<svg width="120px" height="23px" viewBox="0 0 120 23" version="1.1" xmlns="http://www.w3.org/2000/svg" xmlnsXlink="http://www.w3.org/1999/xlink">
    <title>Logo-01</title>
    <desc>Created with Sketch.</desc>
    <defs></defs>
    <g id="Page-1" stroke="none" stroke-width="1" fill="none" fill-rule="evenodd">
        <g id="Logo-01" fill-rule="nonzero">
            <path d="M86.66,10.41 L89.07,8.28 L88.74,7.84 C87.6006276,6.28005259 85.7916369,5.3496086 83.86,5.33 C80.4452588,5.32999554 77.6755165,8.09526329 77.67,11.51 L77.67,17.81 L81.23,17.81 L81.23,12 C81.23,9.86 82.13,8.91 83.84,8.91 C84.9785326,8.86558315 86.0439547,9.46996806 86.59,10.47 L86.66,10.41 Z" id="Line" fill="#000021"></path>
            <path d="M98.05,10.41 L100.46,8.28 L100.13,7.84 C98.9906276,6.28005259 97.1816369,5.3496086 95.25,5.33 C91.8352588,5.32999554 89.0655165,8.09526329 89.06,11.51 L89.06,17.81 L92.62,17.81 L92.62,12 C92.62,9.86 93.52,8.91 95.23,8.91 C96.3691078,8.85196246 97.4425907,9.44489706 98,10.44 L98.05,10.41 Z" id="Line-Copy-2" fill="#000021"></path>
            <polygon id="l-copy-33" fill="#000021" points="18.5 0 14.65 0 14.65 17.73 18.5 17.73"></polygon>
            <polygon id="l-copy-10" fill="#000021" points="3.98 0 0.14 0 0.14 11.74 3.98 9.57"></polygon>
            <polygon id="l-copy-11" fill="#000021" points="52.57 0 48.73 0 48.73 11.74 52.57 9.57"></polygon>
            <path d="M6.55,18.11 C3.0289004,18.0769366 0.198133895,15.2015614 0.220124618,11.6803753 C0.242115341,8.1591891 3.10857457,5.31939461 6.62981247,5.33031241 C10.1510504,5.34123021 12.9998448,8.19874517 13,11.72 C12.994718,13.423522 12.3115493,15.0548741 11.1013559,16.2538099 C9.89116243,17.4527457 8.25349701,18.1206386 6.55,18.11 Z M6.55,14.74 C8.20685425,14.74 9.55,13.3968542 9.55,11.74 C9.55,10.0831458 8.20685425,8.74 6.55,8.74 C4.89314575,8.74 3.55,10.0831458 3.55,11.74 C3.54998224,12.5391268 3.86879671,13.3052352 4.4357389,13.8684228 C5.00268108,14.4316104 5.77089091,14.7453275 6.57,14.74 L6.55,14.74 Z" id="Combined-Shape" fill="#000021"></path>
            <path d="M55.15,18.11 C51.6261554,18.0934516 48.7808485,15.2272934 48.7900296,11.7034219 C48.7992108,8.17955043 51.659414,5.32825751 55.183297,5.33007131 C58.70718,5.33188511 61.5644465,8.18612091 61.57,11.71 C61.5673499,13.4100383 60.8894697,15.0393946 59.6854857,16.2396278 C58.4815017,17.4398611 56.8500383,18.1126542 55.15,18.11 Z M55.15,14.74 C56.8068542,14.74 58.15,13.3968542 58.15,11.74 C58.15,10.0831458 56.8068542,8.74 55.15,8.74 C53.4931458,8.74 52.15,10.0831458 52.15,11.74 C52.1499956,12.5373851 52.4674384,13.3019662 53.0322122,13.8648637 C53.596986,14.4277612 54.3626193,14.742658 55.16,14.74 L55.15,14.74 Z" id="Combined-Shape-Copy" fill="#000021"></path>
            <path d="M76.21,13 L68.21,13 L66,13 C66.3377797,14.7143133 67.8231286,15.9625058 69.57,16 L69.57,18.81 C66.6517074,18.8129065 64.0735849,16.9100577 63.2163315,14.1205134 C62.3590782,11.3309692 63.42366,8.30868284 65.8399462,6.67222281 C68.2562323,5.03576278 71.4577726,5.16876465 73.73,7 C75.3035689,8.25357671 76.2171769,10.1581545 76.21,12.17 L76.21,13 Z M72.79,10.2 C72.595089,9.94072968 72.3663974,9.70867502 72.11,9.51 C71.3150552,8.86967307 70.2919138,8.58413566 69.2802716,8.7202819 C68.2686294,8.85642814 67.3573779,9.40229507 66.76,10.23 L72.79,10.2 Z" id="Combined-Shape-2" fill="#000021"></path>
            <path d="M47.27,13 L39.27,13 L37.11,13 C37.4444448,14.7000418 38.9082756,15.9440906 40.64,16 L40.64,18.81 C37.7204892,18.8172951 35.1387259,16.9167517 34.2783132,14.1268975 C33.4179004,11.3370434 34.4807228,8.31248131 36.897199,6.67411649 C39.3136751,5.03575166 42.5168105,5.16800497 44.79,7 C46.3635689,8.25357671 47.2771769,10.1581545 47.27,12.17 L47.27,13 Z M43.85,10.2 C43.655089,9.94072968 43.4263974,9.70867502 43.17,9.51 C42.3750552,8.86967307 41.3519138,8.58413566 40.3402716,8.7202819 C39.3286294,8.85642814 38.4173779,9.40229507 37.82,10.23 L43.85,10.2 Z" id="Combined-Shape-Copy-2" fill="#000021"></path>
            <g id="Rectangle-4" transform="translate(20.000000, 5.000000)">
                <path d="M12.54,0.35 L12.54,6.85 C12.54,10.271404 9.76640403,13.045 6.345,13.045 C2.92359597,13.045 0.15,10.271404 0.15,6.85 L0.15,0.32 L3.71,0.32 L3.71,6.32 C3.71,8.19 4.61,9.41 6.32,9.41 C8.03,9.41 9,8.52 9,6.38 L9,0.38 L12.54,0.35 Z" id="path-1" fill="#FFFFFF"></path>
                <path d="M12.29,0.6 L9.23,0.6 L9.23,6.38 C9.23,8.61 8.23,9.72 6.37,9.72 C4.51,9.72 3.51,8.44 3.51,6.38 L3.51,0.59 L0.45,0.59 L0.45,6.86 C0.45,10.1433328 3.11166716,12.805 6.395,12.805 C9.67833284,12.805 12.34,10.1433328 12.34,6.86 L12.29,0.6 Z" id="Shape" fill="#000021"></path>
            </g>
            <path d="M117.17,18 C117.933542,18.0062635 118.616995,17.5274891 118.871951,16.8077445 C119.126908,16.088 118.897229,15.285765 118.3,14.81 L118.06,14.64 C117.407587,14.2729415 116.595666,14.3506254 116.024693,14.8347366 C115.453719,15.3188477 115.244294,16.1071319 115.499711,16.8107915 C115.755127,17.514451 116.421436,17.9848587 117.17,17.99 L117.17,18 Z" id="Oval-Copy-71" stroke="#6049FF" stroke-width="0.5" fill="#6049FF"></path>
            <g id="Rectangle-4-Copy" transform="translate(101.000000, 5.000000)">
                <path d="M12.7,0.35 L12.7,6.85 C12.7,10.271404 9.92640403,13.045 6.505,13.045 C3.08359597,13.045 0.31,10.271404 0.31,6.85 L0.31,0.32 L3.87,0.32 L3.87,6.32 C3.87,8.19 4.77,9.41 6.48,9.41 C8.19,9.41 9.09,8.46 9.09,6.32 L9.09,0.32 L12.7,0.35 Z" id="path-2" fill="#FFFFFF"></path>
                <path d="M12.45,0.6 L9.39,0.6 L9.39,6.38 C9.39,8.61 8.39,9.72 6.53,9.72 C4.67,9.72 3.67,8.44 3.67,6.38 L3.67,0.59 L0.61,0.59 L0.61,6.86 C0.61,10.1433328 3.27166716,12.805 6.555,12.805 C9.83833284,12.805 12.5,10.1433328 12.5,6.86 L12.45,0.6 Z" id="Shape" fill="#000021"></path>
            </g>
            <path d="M109.65,22.61 L113.49,22.61 L113.49,10.86 L111.57,12 C110.390833,12.6664209 109.661222,13.915544 109.66,15.27 L109.65,22.61 Z" id="l-copy-13" fill="#000021"></path>
        </g>
    </g>
</svg>
