<svg id="Layer_1" data-name="Layer 1" xmlns="http://www.w3.org/2000/svg" viewBox="0 0 121 25">
  <defs>
    <style>
      .cls-1 {
        fill: #000021;
      }

      .cls-2 {
        fill: #fff;
      }

      .cls-3 {
        fill: #6049ff;
        stroke: #6049ff;
        stroke-width: 0.5px;
      }
    </style>
  </defs>
  <title>Logo</title>
  <g id="Page-1">
    <g id="iPhone-7-Copy">
      <g id="Logo">
        <path id="Line" class="cls-1" d="M87.66,11.41l2.41-2.13-.33-.44a6.12,6.12,0,0,0-4.88-2.51,6.19,6.19,0,0,0-6.19,6.18l0,6.3h3.56V13c0-2.14.9-3.09,2.61-3.09a3,3,0,0,1,2.75,1.56Z"/>
        <path id="Line-Copy-2" class="cls-1" d="M99.05,11.41l2.41-2.13-.33-.44a6.12,6.12,0,0,0-4.88-2.51,6.19,6.19,0,0,0-6.19,6.18l0,6.3h3.56V13c0-2.14.9-3.09,2.61-3.09A3,3,0,0,1,99,11.44Z"/>
        <polygon id="l-copy-33" class="cls-1" points="19.5 1 15.65 1 15.65 18.73 19.5 18.73 19.5 1"/>
        <polygon id="l-copy-10" class="cls-1" points="4.98 1 1.14 1 1.14 12.74 4.98 10.57 4.98 1"/>
        <polygon id="l-copy-11" class="cls-1" points="53.57 1 49.73 1 49.73 12.74 53.57 10.57 53.57 1"/>
        <path id="Combined-Shape" class="cls-1" d="M7.55,19.11A6.39,6.39,0,1,1,14,12.72,6.41,6.41,0,0,1,7.55,19.11Zm0-3.37a3,3,0,1,0-3-3A3,3,0,0,0,7.57,15.74Z"/>
        <path id="Combined-Shape-Copy" class="cls-1" d="M56.15,19.11a6.39,6.39,0,1,1,6.42-6.4A6.41,6.41,0,0,1,56.15,19.11Zm0-3.37a3,3,0,1,0-3-3A3,3,0,0,0,56.16,15.74Z"/>
        <path id="Combined-Shape-2" data-name="Combined-Shape" class="cls-1" d="M77.21,14l-8,0H67A3.72,3.72,0,0,0,70.57,17l0,2.81A6.64,6.64,0,1,1,74.73,8a6.58,6.58,0,0,1,2.48,5.17Zm-3.42-2.8a3.64,3.64,0,0,0-.68-.69,3.72,3.72,0,0,0-5.35.72Z"/>
        <path id="Combined-Shape-Copy-2" class="cls-1" d="M48.27,14l-8,0H38.11A3.72,3.72,0,0,0,41.64,17l0,2.81A6.64,6.64,0,1,1,45.79,8a6.58,6.58,0,0,1,2.48,5.17Zm-3.42-2.8a3.64,3.64,0,0,0-.68-.69,3.72,3.72,0,0,0-5.35.72Z"/>
        <g id="Rectangle-4">
          <path id="path-1" class="cls-2" d="M33.54,6.35l0,6.5a6.19,6.19,0,0,1-12.39,0V6.32l3.56,0v6c0,1.87.9,3.09,2.61,3.09S30,14.52,30,12.38v-6Z"/>
          <path class="cls-1" d="M33.29,6.6H30.23v5.78c0,2.23-1,3.34-2.86,3.34s-2.86-1.28-2.86-3.34V6.59l-3.06,0v6.27a5.94,5.94,0,0,0,11.89,0Z"/>
        </g>
        <path id="Oval-Copy-71" class="cls-3" d="M118.17,19a1.79,1.79,0,0,0,1.13-3.19l-.24-.17a1.79,1.79,0,1,0-.89,3.35Z"/>
        <g id="Rectangle-4-Copy">
          <path id="path-2" class="cls-2" d="M114.7,6.35l0,6.5a6.19,6.19,0,0,1-12.39,0V6.32l3.56,0v6c0,1.87.9,3.09,2.61,3.09s2.61-.95,2.61-3.09v-6Z"/>
          <path class="cls-1" d="M114.45,6.6h-3.06v5.78c0,2.23-1,3.34-2.86,3.34s-2.86-1.28-2.86-3.34V6.59l-3.06,0v6.27a5.94,5.94,0,0,0,11.89,0Z"/>
        </g>
        <path id="l-copy-13" class="cls-1" d="M110.65,23.61h3.84V11.86L112.57,13a3.76,3.76,0,0,0-1.91,3.27Z"/>
      </g>
    </g>
  </g>
</svg>
